<svg id="svg" xmlns="http://www.w3.org/2000/svg" xmlns:xlink="http://www.w3.org/1999/xlink" width="400" height="400" viewBox="0, 0, 400,400"><g id="svgg"><path id="path0" d="M327.224 87.286 C 319.744 88.222,310.960 92.667,299.007 101.567 C 292.819 106.174,292.195 106.190,292.185 101.733 C 292.178 98.879,292.009 98.487,290.539 97.929 C 288.167 97.027,286.833 97.418,283.665 99.944 C 281.766 101.458,281.391 101.388,264.762 96.444 C 256.905 94.108,248.373 91.654,245.802 90.992 L 241.127 89.787 240.183 90.674 C 239.053 91.736,238.891 93.632,239.905 93.943 C 241.801 94.524,243.860 95.753,246.004 97.583 C 247.718 99.046,252.298 101.703,262.290 107.028 C 269.935 111.103,276.190 114.561,276.190 114.713 C 276.190 114.865,273.356 117.244,269.891 119.999 L 263.592 125.009 261.298 122.886 C 257.189 119.081,255.101 120.257,255.091 126.381 C 255.088 128.110,255.059 129.524,255.026 129.524 C 254.993 129.524,251.947 128.845,248.258 128.015 C 241.594 126.516,240.069 126.446,238.779 127.578 C 238.631 127.708,241.441 129.356,245.024 131.240 C 253.418 135.656,252.851 135.102,251.003 137.066 C 244.716 143.747,200.597 162.252,169.524 171.241 C 127.465 183.407,114.375 180.601,125.940 161.897 C 129.471 156.186,128.498 154.802,123.152 157.935 C 114.043 163.273,105.469 179.525,108.449 185.804 C 110.415 189.948,120.119 190.374,136.000 187.016 C 147.988 184.481,169.440 177.902,183.184 172.547 L 187.892 170.712 187.633 172.784 L 187.374 174.856 209.211 167.463 C 242.528 156.184,244.952 155.344,244.952 155.083 C 244.952 154.949,242.081 154.178,238.571 153.368 C 235.062 152.559,232.060 151.781,231.901 151.639 C 231.741 151.498,237.282 148.254,244.214 144.431 L 256.817 137.480 259.551 139.926 C 266.173 145.850,268.161 145.618,266.032 139.170 C 264.775 135.360,264.823 135.276,269.076 133.874 C 274.675 132.028,277.797 130.695,285.224 126.979 L 292.543 123.317 294.367 124.237 C 295.370 124.743,300.967 129.161,306.804 134.055 L 317.418 142.954 319.230 141.096 L 321.041 139.238 318.046 133.714 C 314.684 127.516,314.480 126.551,316.190 124.952 C 317.162 124.044,317.333 123.603,317.333 122.000 L 317.333 120.116 314.007 119.772 L 310.680 119.429 309.616 116.650 C 307.976 112.369,308.407 111.766,316.190 107.436 C 327.565 101.109,333.806 94.901,333.879 89.839 C 333.917 87.177,332.485 86.628,327.224 87.286 M78.841 115.314 C 35.964 184.878,61.918 273.437,135.429 308.400 C 181.838 330.473,233.034 330.259,278.451 307.803 C 286.783 303.684,300.999 294.857,299.302 294.857 C 299.208 294.857,297.526 295.809,295.565 296.972 C 262.862 316.372,224.707 323.277,186.476 316.715 C 125.093 306.179,75.765 259.602,68.201 205.037 C 63.914 174.114,66.553 150.937,76.639 130.918 C 77.370 129.467,78.266 126.356,79.216 121.966 C 80.017 118.266,80.949 114.309,81.287 113.173 C 82.203 110.100,81.881 110.381,78.841 115.314 M75.485 139.881 C 68.867 160.025,68.483 187.509,74.477 212.108 C 86.051 259.614,118.423 293.609,165.905 308.121 C 217.858 323.999,269.488 312.231,315.148 274.104 C 320.316 269.788,332.571 258.045,332.571 257.408 C 332.571 257.197,330.814 258.726,328.667 260.804 C 278.910 308.962,200.828 321.050,146.041 289.076 C 94.897 259.228,69.149 211.549,75.616 158.667 C 75.923 156.152,76.182 152.295,76.191 150.095 C 76.200 147.895,76.373 143.965,76.576 141.361 C 77.028 135.543,76.946 135.432,75.485 139.881 M250.857 158.457 C 249.810 158.627,245.524 159.800,241.333 161.065 C 229.775 164.552,222.866 166.548,212.077 169.515 C 190.735 175.384,146.520 189.276,143.238 191.143 C 138.996 193.556,136.612 196.493,137.604 198.082 C 138.018 198.745,137.907 199.017,136.703 200.277 C 135.471 201.565,134.222 203.429,134.591 203.429 C 134.817 203.429,145.242 201.534,146.190 201.321 C 146.784 201.188,147.048 201.304,147.048 201.700 C 147.048 202.014,146.576 202.376,146.000 202.504 C 137.384 204.422,134.101 205.955,133.212 208.476 C 132.878 209.422,134.405 209.353,140.000 208.170 C 160.315 203.874,174.937 201.158,187.048 199.431 C 192.390 198.670,207.305 196.353,220.190 194.283 C 268.972 186.447,279.538 185.017,301.584 183.270 C 306.684 182.866,311.177 182.332,311.662 182.072 L 312.538 181.603 311.230 180.511 C 305.109 175.401,287.675 175.486,260.571 180.758 C 256.905 181.471,242.676 184.044,228.952 186.476 C 188.849 193.581,180.985 195.029,176.967 196.046 C 167.478 198.448,149.448 201.384,148.712 200.648 C 147.572 199.508,174.356 193.401,200.000 188.955 C 211.023 187.043,222.990 184.686,237.714 181.524 C 255.586 177.687,271.162 174.850,284.741 172.961 C 287.872 172.525,290.498 172.106,290.575 172.028 C 291.331 171.273,280.266 167.625,276.381 167.349 C 267.326 166.706,192.461 183.434,153.333 194.844 C 146.331 196.886,143.771 197.448,142.286 197.269 C 136.856 196.615,169.066 187.527,231.810 172.008 C 251.086 167.241,266.987 163.221,267.147 163.076 C 267.306 162.930,265.077 161.828,262.194 160.626 C 256.622 158.303,254.409 157.880,250.857 158.457 M345.810 182.752 C 346.490 182.836,347.605 182.836,348.286 182.752 C 348.967 182.667,348.410 182.598,347.048 182.598 C 345.686 182.598,345.129 182.667,345.810 182.752 M234.381 212.072 C 234.748 212.168,235.348 212.168,235.714 212.072 C 236.081 211.976,235.781 211.898,235.048 211.898 C 234.314 211.898,234.014 211.976,234.381 212.072 M200.107 225.804 C 201.108 225.883,202.651 225.882,203.535 225.802 C 204.419 225.722,203.600 225.658,201.714 225.659 C 199.829 225.660,199.105 225.726,200.107 225.804 M218.182 225.799 C 218.858 225.883,220.058 225.884,220.849 225.802 C 221.639 225.719,221.086 225.651,219.619 225.649 C 218.152 225.647,217.506 225.715,218.182 225.799 M234.762 226.167 C 235.129 226.263,235.729 226.263,236.095 226.167 C 236.462 226.072,236.162 225.993,235.429 225.993 C 234.695 225.993,234.395 226.072,234.762 226.167 M247.528 226.555 C 248.002 226.646,248.688 226.643,249.052 226.547 C 249.416 226.452,249.029 226.378,248.190 226.382 C 247.352 226.386,247.054 226.464,247.528 226.555 M173.429 232.284 C 175.262 232.353,178.262 232.353,180.095 232.284 C 181.929 232.214,180.429 232.157,176.762 232.157 C 173.095 232.157,171.595 232.214,173.429 232.284 M192.857 232.284 C 194.900 232.352,198.243 232.352,200.286 232.284 C 202.329 232.216,200.657 232.159,196.571 232.159 C 192.486 232.159,190.814 232.216,192.857 232.284 M150.196 232.654 C 150.775 232.742,151.632 232.740,152.100 232.649 C 152.569 232.559,152.095 232.487,151.048 232.490 C 150.000 232.493,149.617 232.567,150.196 232.654 M232.095 232.658 C 232.881 232.741,234.167 232.741,234.952 232.658 C 235.738 232.576,235.095 232.509,233.524 232.509 C 231.952 232.509,231.310 232.576,232.095 232.658 M253.048 233.035 C 253.624 233.122,254.567 233.122,255.143 233.035 C 255.719 232.947,255.248 232.876,254.095 232.876 C 252.943 232.876,252.471 232.947,253.048 233.035 M270.385 233.412 C 270.859 233.503,271.545 233.500,271.909 233.405 C 272.273 233.309,271.886 233.235,271.048 233.239 C 270.210 233.243,269.912 233.321,270.385 233.412 M285.623 233.793 C 286.097 233.884,286.783 233.881,287.147 233.786 C 287.512 233.690,287.124 233.616,286.286 233.620 C 285.448 233.624,285.150 233.702,285.623 233.793 M298.762 234.167 C 299.129 234.263,299.729 234.263,300.095 234.167 C 300.462 234.072,300.162 233.993,299.429 233.993 C 298.695 233.993,298.395 234.072,298.762 234.167 M312.095 234.548 C 312.462 234.644,313.062 234.644,313.429 234.548 C 313.795 234.452,313.495 234.374,312.762 234.374 C 312.029 234.374,311.729 234.452,312.095 234.548 M66.380 312.667 L 64.918 314.095 60.622 338.570 L 56.327 363.045 57.142 364.189 L 57.957 365.333 74.518 365.333 L 91.078 365.333 92.243 364.476 C 93.922 363.240,94.265 362.323,95.259 356.414 L 96.150 351.113 95.341 350.576 L 94.532 350.039 95.667 348.428 C 97.630 345.643,100.009 330.990,98.859 328.766 C 97.575 326.283,89.194 325.320,85.605 327.243 L 84.174 328.010 83.095 327.213 C 82.102 326.478,81.606 326.425,76.851 326.541 C 68.971 326.733,68.191 327.593,66.309 338.169 C 64.510 348.275,64.995 350.857,68.690 350.857 C 70.458 350.857,70.619 349.994,69.259 347.806 L 68.019 345.812 69.233 338.730 C 70.826 329.440,70.593 329.747,76.186 329.606 C 82.648 329.443,82.467 329.079,80.737 338.783 C 79.527 345.571,79.042 346.811,76.745 348.968 C 75.299 350.327,75.509 350.998,77.304 350.757 C 81.008 350.260,81.946 348.548,83.614 339.238 C 85.385 329.356,85.099 329.746,90.662 329.606 C 97.144 329.443,96.957 329.051,95.177 339.097 L 93.974 345.889 92.130 347.958 C 89.949 350.404,89.860 350.857,91.556 350.857 C 92.254 350.857,92.911 350.942,93.015 351.047 C 93.521 351.552,91.363 361.354,90.604 362.000 C 89.707 362.763,61.984 363.042,60.601 362.302 C 60.000 361.980,66.891 317.608,67.985 314.759 C 68.131 314.379,71.454 314.298,83.704 314.377 L 99.238 314.476 99.105 317.238 C 98.976 319.922,98.998 320.000,99.867 319.994 C 101.287 319.985,101.660 319.538,102.099 317.319 C 102.326 316.175,102.589 314.866,102.684 314.410 C 102.793 313.887,102.494 313.151,101.871 312.410 L 100.885 311.238 84.363 311.238 L 67.842 311.238 66.380 312.667 M124.762 311.836 C 120.594 313.999,118.904 320.477,121.826 323.088 C 124.187 325.198,129.566 324.887,129.829 322.626 C 129.941 321.669,129.863 321.630,127.393 321.399 C 124.068 321.089,123.282 320.426,123.538 318.148 C 123.889 315.032,124.656 314.493,128.911 314.367 L 132.600 314.258 134.244 315.605 C 136.571 317.512,137.915 316.932,137.331 314.274 C 136.704 311.419,128.596 309.846,124.762 311.836 M24.283 327.599 C 21.480 329.377,20.982 330.954,18.523 345.857 C 18.275 347.356,19.001 349.226,20.231 350.261 C 21.977 351.730,30.110 351.749,32.600 350.289 C 36.849 347.799,37.060 342.662,32.952 341.701 C 28.659 340.697,21.737 344.758,23.820 347.059 C 24.540 347.855,24.014 348.367,22.855 347.999 C 21.534 347.580,21.520 346.019,22.772 338.681 C 24.347 329.447,24.118 329.747,29.710 329.606 C 34.524 329.485,35.429 329.845,35.429 331.881 C 35.429 333.178,36.236 333.609,37.548 333.011 C 39.217 332.250,38.550 328.515,36.489 327.071 C 34.781 325.875,26.432 326.236,24.283 327.599 M45.524 327.075 C 42.449 328.675,41.898 329.875,40.381 338.286 C 38.896 346.511,38.954 348.591,40.709 350.159 C 44.762 353.780,50.885 348.771,49.756 342.757 C 49.235 339.979,45.664 338.225,44.177 340.016 C 43.185 341.212,43.067 339.852,43.810 335.790 C 44.906 329.801,44.970 329.740,50.282 329.606 C 57.109 329.434,56.821 327.757,53.337 347.436 C 50.044 366.041,50.037 365.555,53.582 365.263 C 55.137 365.136,56.213 362.667,54.713 362.667 C 53.687 362.667,53.734 362.228,56.405 347.029 C 60.103 325.979,60.231 326.474,51.118 326.479 C 47.831 326.480,46.368 326.636,45.524 327.075 M106.289 327.183 C 104.598 328.090,102.944 330.138,102.628 331.716 C 102.217 333.770,104.334 333.515,105.798 331.333 L 106.885 329.714 111.278 329.608 C 117.642 329.453,117.431 329.046,115.828 338.389 C 114.142 348.215,114.229 348.073,109.661 348.460 C 106.187 348.755,105.225 348.426,103.215 346.257 C 100.579 343.411,100.472 343.599,98.585 354.347 C 97.070 362.982,97.032 363.393,97.654 364.343 L 98.303 365.333 112.059 365.333 C 129.027 365.333,128.978 365.352,129.762 358.675 C 130.222 354.763,127.354 355.493,126.670 359.463 C 126.361 361.255,126.098 361.789,125.333 362.175 C 123.969 362.863,101.219 362.878,100.655 362.190 C 100.247 361.693,101.804 351.758,102.379 351.182 C 102.537 351.025,103.438 351.075,104.381 351.294 C 106.982 351.899,112.103 351.443,113.871 350.449 L 115.338 349.625 116.558 350.527 C 118.508 351.968,125.899 351.880,128.443 350.384 C 131.204 348.761,131.702 347.606,133.206 339.332 C 134.772 330.725,134.741 329.106,132.984 327.536 C 131.538 326.244,126.015 325.904,125.565 327.079 C 124.854 328.929,125.585 329.509,128.639 329.519 C 131.843 329.529,131.915 330.020,130.147 339.779 C 128.571 348.477,127.778 349.229,121.010 348.440 C 117.339 348.012,117.206 347.386,118.851 338.286 C 120.370 329.889,120.278 328.657,118.013 327.071 C 116.685 326.141,108.079 326.223,106.289 327.183 M141.524 327.060 C 138.433 328.709,137.897 329.879,136.381 338.286 C 134.896 346.511,134.954 348.591,136.709 350.159 C 140.762 353.780,146.885 348.771,145.756 342.757 C 145.235 339.979,141.664 338.225,140.177 340.016 C 139.185 341.212,139.067 339.852,139.810 335.790 C 140.906 329.801,140.970 329.740,146.282 329.606 C 153.109 329.434,152.821 327.757,149.337 347.436 C 146.044 366.041,146.037 365.555,149.582 365.263 C 151.375 365.116,152.061 362.971,150.449 362.549 C 149.808 362.381,149.669 362.133,149.835 361.452 C 149.953 360.968,150.927 355.514,152.000 349.333 C 155.063 331.681,155.138 331.348,156.292 330.273 C 156.992 329.621,157.647 329.524,161.359 329.524 C 167.406 329.524,167.231 329.070,165.333 339.832 C 163.893 347.993,163.829 348.087,159.409 348.488 L 156.381 348.762 156.263 349.987 C 155.927 353.463,164.629 351.279,166.556 347.404 C 167.655 345.194,169.987 331.119,169.500 329.641 C 168.436 326.420,160.528 325.046,155.912 327.281 C 154.288 328.067,154.231 328.069,153.467 327.376 C 152.357 326.370,143.268 326.129,141.524 327.060 M45.257 342.871 C 47.053 344.598,47.222 345.492,46.099 347.333 C 44.078 350.648,41.538 347.613,42.512 343.048 C 42.979 340.861,43.153 340.849,45.257 342.871 M141.257 342.871 C 143.053 344.598,143.222 345.492,142.099 347.333 C 140.078 350.648,137.538 347.613,138.512 343.048 C 138.979 340.861,139.153 340.849,141.257 342.871 M32.366 345.315 C 33.684 346.903,31.712 348.312,28.116 348.352 C 24.683 348.391,24.363 347.951,26.542 346.184 C 28.482 344.611,31.418 344.172,32.366 345.315 " stroke="none" fill="#bb3476" fill-rule="evenodd"></path><path id="path1" d="M136.700 32.176 C 132.108 33.517,124.462 37.774,122.044 40.335 C 120.176 42.315,118.473 46.508,116.340 54.381 C 114.941 59.544,115.141 59.592,107.665 52.273 C 98.248 43.054,91.197 40.717,80.185 43.167 C 75.468 44.216,66.667 47.819,66.667 48.701 C 66.667 49.560,75.279 50.435,77.506 49.801 C 78.998 49.377,79.575 49.326,79.347 49.639 C 79.164 49.890,78.359 50.919,77.560 51.926 C 75.518 54.495,75.940 54.476,80.549 51.787 C 85.345 48.990,85.540 49.054,83.677 52.820 C 81.876 56.461,81.922 56.485,85.833 53.962 L 89.075 51.871 87.351 54.336 C 85.154 57.478,85.295 57.552,89.476 55.452 C 93.703 53.330,93.630 53.331,92.417 55.401 C 91.042 57.747,90.986 57.685,95.333 58.658 C 97.481 59.139,99.384 59.615,99.563 59.717 C 99.741 59.819,98.284 60.748,96.325 61.782 C 85.700 67.386,77.255 76.861,71.983 89.089 C 70.289 93.018,68.686 98.146,69.040 98.501 C 69.527 98.988,77.980 91.526,78.209 90.407 C 78.768 87.676,79.594 87.661,79.607 90.381 C 79.620 93.251,80.143 93.722,81.244 91.857 C 82.036 90.518,83.034 86.417,83.042 84.476 C 83.045 83.690,83.219 83.048,83.429 83.048 C 83.638 83.048,83.810 83.295,83.810 83.597 C 83.810 84.436,85.764 89.524,86.085 89.524 C 86.241 89.524,86.588 88.242,86.855 86.676 C 87.415 83.405,87.800 83.290,88.173 86.281 C 88.560 89.376,88.906 88.903,90.118 83.619 C 91.338 78.299,91.810 77.662,91.810 81.333 C 91.810 84.279,91.535 84.225,95.668 82.090 C 98.827 80.459,100.211 80.312,99.031 81.734 C 98.364 82.538,98.792 96.032,99.604 99.810 C 100.272 102.911,102.378 107.638,103.574 108.721 C 105.357 110.334,106.806 104.578,105.855 99.664 L 105.288 96.739 107.542 98.941 C 110.121 101.461,110.122 101.343,107.589 95.551 C 105.415 90.580,105.387 90.630,108.952 93.143 C 110.629 94.324,112.000 95.176,112.000 95.035 C 112.000 94.895,111.057 93.022,109.905 90.874 C 107.289 85.996,107.289 85.996,110.286 88.381 C 111.648 89.465,112.762 90.248,112.762 90.121 C 112.762 89.995,111.894 88.162,110.834 86.048 C 108.600 81.597,108.600 81.601,110.935 83.055 L 112.709 84.159 114.482 78.839 C 115.457 75.913,116.416 73.618,116.613 73.740 C 119.734 75.669,130.508 114.547,132.600 131.429 C 133.427 138.097,132.587 151.822,130.491 165.903 C 129.993 169.255,129.622 172.034,129.667 172.079 C 130.706 173.118,149.936 172.356,151.547 171.212 C 151.613 171.165,151.402 169.846,151.078 168.281 C 149.015 158.292,150.201 139.923,153.715 127.429 C 155.829 119.912,162.107 103.053,163.276 101.755 C 163.666 101.321,164.610 102.798,165.157 104.699 C 165.498 105.886,166.177 107.286,166.665 107.810 C 167.154 108.333,167.757 109.533,168.007 110.476 C 168.257 111.419,168.738 112.705,169.077 113.333 C 169.416 113.962,169.808 115.762,169.949 117.333 C 170.355 121.895,172.803 128.253,173.804 127.347 C 175.835 125.510,176.777 121.369,177.091 112.899 L 177.333 106.370 180.000 107.430 L 182.667 108.490 182.784 107.007 C 182.930 105.153,183.502 105.084,183.839 106.879 C 184.149 108.534,185.091 109.179,187.694 109.521 L 189.674 109.780 190.095 111.809 C 190.479 113.660,190.644 113.889,191.970 114.420 C 192.770 114.740,194.748 115.784,196.367 116.742 L 199.310 118.482 199.036 116.479 C 197.444 104.837,190.757 96.526,178.999 91.579 C 173.932 89.447,174.168 88.971,181.048 87.455 C 181.942 87.257,182.095 87.033,182.095 85.914 L 182.095 84.605 183.642 85.151 C 185.127 85.675,185.179 85.667,184.951 84.947 C 184.484 83.475,185.163 83.384,187.333 84.626 C 188.838 85.487,189.396 85.666,189.231 85.236 C 187.945 81.884,188.486 81.364,191.477 83.076 L 193.524 84.246 193.524 83.097 L 193.524 81.947 196.357 81.947 C 204.469 81.947,203.596 80.408,193.672 77.213 C 184.106 74.134,178.556 75.458,170.927 82.640 C 164.843 88.368,163.810 88.566,162.945 84.173 C 161.263 75.635,155.735 70.056,146.891 67.971 C 143.179 67.096,142.399 67.576,144.823 69.245 C 147.966 71.408,151.849 76.214,154.869 81.680 L 156.324 84.312 154.923 84.084 C 153.363 83.831,150.810 82.161,150.031 80.883 C 146.944 75.823,139.204 69.295,129.526 63.588 L 126.672 61.905 129.526 61.628 C 131.096 61.476,133.710 61.247,135.335 61.119 L 138.290 60.887 137.526 59.916 C 136.414 58.503,137.191 57.453,138.495 58.606 C 138.694 58.782,139.501 59.311,140.289 59.782 L 141.721 60.637 141.336 59.627 C 140.582 57.643,140.896 57.491,143.328 58.667 C 145.316 59.627,145.272 59.640,144.581 58.305 C 143.360 55.943,144.152 55.789,147.600 57.718 L 149.991 59.055 149.808 58.099 C 149.571 56.860,150.849 56.792,152.738 57.944 C 154.269 58.877,159.619 58.704,159.619 57.721 C 159.619 56.550,152.106 52.716,145.438 50.485 C 138.548 48.179,134.440 48.645,128.815 52.368 C 123.430 55.932,123.188 54.162,128.309 48.667 C 129.069 47.852,129.149 47.619,128.670 47.619 C 128.332 47.619,127.683 47.148,127.229 46.571 L 126.403 45.524 128.803 45.194 C 131.169 44.870,131.189 44.857,130.173 44.325 C 128.168 43.274,129.390 42.286,132.694 42.286 L 133.864 42.286 132.597 40.979 L 131.330 39.672 132.808 39.430 C 133.621 39.296,134.543 39.153,134.857 39.110 C 135.230 39.060,135.389 38.698,135.316 38.068 C 135.224 37.278,135.568 36.852,137.221 35.713 C 138.330 34.949,139.912 33.633,140.735 32.790 L 142.232 31.256 140.863 31.308 C 140.110 31.336,138.237 31.727,136.700 32.176 M127.333 80.313 C 130.214 82.098,132.571 83.684,132.571 83.838 C 132.571 84.167,126.507 87.779,126.305 87.570 C 126.120 87.379,121.143 76.882,121.143 76.684 C 121.143 76.480,121.174 76.499,127.333 80.313 M142.337 89.143 C 143.455 89.143,144.611 89.462,145.646 90.058 C 146.522 90.561,147.795 91.089,148.476 91.231 C 150.907 91.738,150.247 93.199,146.190 96.290 C 138.742 101.966,136.361 105.209,136.410 109.607 C 136.445 112.752,137.230 115.408,137.695 113.956 L 137.984 113.055 138.661 114.087 C 139.449 115.288,139.548 115.179,140.190 112.381 C 140.865 109.444,140.921 109.418,142.112 111.458 L 143.178 113.282 143.382 111.974 C 143.494 111.255,143.704 109.810,143.849 108.762 L 144.113 106.857 144.695 108.667 C 145.424 110.935,145.530 110.924,146.537 108.476 C 147.210 106.842,147.408 106.616,147.617 107.238 C 148.340 109.389,148.098 109.436,153.333 106.110 L 158.286 102.963 158.405 104.055 C 158.488 104.814,157.662 106.871,155.694 110.807 C 151.033 120.127,148.717 126.619,145.009 140.762 L 144.110 144.190 143.669 142.151 C 143.427 141.029,142.359 137.086,141.295 133.390 C 140.231 129.694,138.528 123.241,137.510 119.049 C 135.011 108.758,132.237 100.756,127.948 91.464 C 126.166 87.603,125.874 87.914,130.813 88.411 C 133.680 88.700,135.041 88.703,135.381 88.420 C 135.721 88.138,135.986 88.138,136.268 88.421 C 136.551 88.703,137.223 88.541,138.526 87.877 L 140.381 86.930 140.500 88.037 C 140.613 89.076,140.723 89.143,142.337 89.143 M78.131 179.238 C 77.950 201.441,87.453 227.779,102.735 247.429 C 121.938 272.119,155.720 293.446,183.238 298.251 C 200.124 301.200,203.348 301.497,218.667 301.508 C 263.160 301.541,299.147 285.745,327.197 253.872 C 334.314 245.785,345.524 229.714,345.524 227.598 C 345.524 226.817,341.725 231.068,338.185 235.810 C 305.172 280.033,255.805 301.533,202.667 294.831 C 140.885 287.039,91.175 240.631,78.848 179.238 L 78.159 175.810 78.131 179.238 " stroke="none" fill="#06a35d" fill-rule="evenodd"></path><path id="path2" d="M209.905 7.079 C 209.171 7.160,206.771 7.416,204.571 7.650 C 183.737 9.860,162.294 17.259,144.454 28.393 C 140.013 31.164,139.496 31.636,141.238 31.328 C 142.616 31.084,140.350 33.557,137.221 35.713 C 135.568 36.852,135.224 37.278,135.316 38.068 C 135.389 38.698,135.230 39.060,134.857 39.110 C 134.543 39.153,133.621 39.296,132.808 39.430 L 131.330 39.672 132.597 40.979 L 133.864 42.286 132.694 42.286 C 129.390 42.286,128.168 43.274,130.173 44.325 C 131.189 44.857,131.169 44.870,128.803 45.194 L 126.403 45.524 127.229 46.571 C 127.683 47.148,128.332 47.619,128.670 47.619 C 129.149 47.619,129.069 47.852,128.309 48.667 C 123.188 54.162,123.430 55.932,128.815 52.368 C 134.440 48.645,138.548 48.179,145.438 50.485 C 152.106 52.716,159.619 56.550,159.619 57.721 C 159.619 58.704,154.269 58.877,152.738 57.944 C 150.849 56.792,149.571 56.860,149.808 58.099 L 149.991 59.055 147.600 57.718 C 144.152 55.789,143.360 55.943,144.581 58.305 C 145.272 59.640,145.316 59.627,143.328 58.667 C 140.896 57.491,140.582 57.643,141.336 59.627 L 141.721 60.637 140.289 59.782 C 139.501 59.311,138.694 58.782,138.495 58.606 C 137.191 57.453,136.414 58.503,137.526 59.916 L 138.290 60.887 135.335 61.119 C 133.710 61.247,131.096 61.476,129.526 61.628 L 126.672 61.905 129.526 63.588 C 139.204 69.295,146.944 75.823,150.031 80.883 C 150.810 82.161,153.363 83.831,154.923 84.084 L 156.324 84.312 154.869 81.680 C 151.849 76.214,147.966 71.408,144.823 69.245 C 142.399 67.576,143.179 67.096,146.891 67.971 C 155.735 70.056,161.263 75.635,162.945 84.173 C 163.810 88.566,164.843 88.368,170.927 82.640 C 178.556 75.458,184.106 74.134,193.672 77.213 C 203.596 80.408,204.469 81.947,196.357 81.947 L 193.524 81.947 193.524 83.097 L 193.524 84.246 191.477 83.076 C 188.486 81.364,187.945 81.884,189.231 85.236 C 189.396 85.666,188.838 85.487,187.333 84.626 C 185.163 83.384,184.484 83.475,184.951 84.947 C 185.179 85.667,185.127 85.675,183.642 85.151 L 182.095 84.605 182.095 85.914 C 182.095 87.033,181.942 87.257,181.048 87.455 C 174.168 88.971,173.932 89.447,178.999 91.579 C 190.757 96.526,197.444 104.837,199.036 116.479 L 199.310 118.482 196.367 116.742 C 194.748 115.784,192.770 114.740,191.970 114.420 C 190.644 113.889,190.479 113.660,190.095 111.809 L 189.674 109.780 187.694 109.521 C 185.091 109.179,184.149 108.534,183.839 106.879 C 183.502 105.084,182.930 105.153,182.784 107.007 L 182.667 108.490 180.000 107.430 L 177.333 106.370 177.091 112.899 C 176.777 121.369,175.835 125.510,173.804 127.347 C 172.803 128.253,170.355 121.895,169.949 117.333 C 169.808 115.762,169.416 113.962,169.077 113.333 C 168.738 112.705,168.257 111.419,168.007 110.476 C 167.757 109.533,167.154 108.333,166.665 107.810 C 166.177 107.286,165.498 105.886,165.157 104.699 C 164.610 102.798,163.666 101.321,163.276 101.755 C 162.107 103.053,155.829 119.912,153.715 127.429 C 150.201 139.923,149.015 158.292,151.078 168.281 C 151.402 169.846,151.613 171.165,151.547 171.212 C 149.936 172.356,130.706 173.118,129.667 172.079 C 129.622 172.034,129.993 169.255,130.491 165.903 C 132.587 151.822,133.427 138.097,132.600 131.429 C 130.508 114.547,119.734 75.669,116.613 73.740 C 116.416 73.618,115.457 75.913,114.482 78.839 L 112.709 84.159 110.935 83.055 C 108.600 81.601,108.600 81.597,110.834 86.048 C 111.894 88.162,112.762 89.995,112.762 90.121 C 112.762 90.248,111.648 89.465,110.286 88.381 C 107.289 85.996,107.289 85.996,109.905 90.874 C 111.057 93.022,112.000 94.895,112.000 95.035 C 112.000 95.176,110.629 94.324,108.952 93.143 C 105.387 90.630,105.415 90.580,107.589 95.551 C 110.122 101.343,110.121 101.461,107.542 98.941 L 105.288 96.739 105.855 99.664 C 106.806 104.578,105.357 110.334,103.574 108.721 C 102.378 107.638,100.272 102.911,99.604 99.810 C 98.792 96.032,98.364 82.538,99.031 81.734 C 100.145 80.392,98.875 80.459,96.022 81.894 C 92.586 83.621,92.461 83.784,89.311 90.667 C 76.809 117.984,72.970 150.290,78.808 179.059 C 99.814 282.584,219.082 330.084,304.736 269.039 C 388.837 209.101,384.888 83.717,297.159 28.479 C 279.945 17.640,260.621 10.803,238.667 7.784 C 234.359 7.192,213.536 6.681,209.905 7.079 M114.337 53.223 L 111.625 56.190 112.771 57.238 C 114.761 59.057,115.152 58.753,116.350 54.455 C 117.688 49.652,117.632 49.618,114.337 53.223 M121.143 76.684 C 121.143 76.882,126.120 87.379,126.305 87.570 C 126.507 87.779,132.571 84.167,132.571 83.838 C 132.571 83.684,130.214 82.098,127.333 80.313 C 121.174 76.499,121.143 76.480,121.143 76.684 M138.526 87.877 C 137.223 88.541,136.551 88.703,136.268 88.421 C 135.986 88.138,135.721 88.138,135.381 88.420 C 135.041 88.703,133.680 88.700,130.813 88.411 C 125.874 87.914,126.166 87.603,127.948 91.464 C 132.237 100.756,135.011 108.758,137.510 119.049 C 138.528 123.241,140.231 129.694,141.295 133.390 C 142.359 137.086,143.427 141.029,143.669 142.151 L 144.110 144.190 145.009 140.762 C 148.717 126.619,151.033 120.127,155.694 110.807 C 157.662 106.871,158.488 104.814,158.405 104.055 L 158.286 102.963 153.333 106.110 C 148.098 109.436,148.340 109.389,147.617 107.238 C 147.408 106.616,147.210 106.842,146.537 108.476 C 145.530 110.924,145.424 110.935,144.695 108.667 L 144.113 106.857 143.849 108.762 C 143.704 109.810,143.494 111.255,143.382 111.974 L 143.178 113.282 142.112 111.458 C 140.921 109.418,140.865 109.444,140.190 112.381 C 139.548 115.179,139.449 115.288,138.661 114.087 L 137.984 113.055 137.695 113.956 C 137.230 115.408,136.445 112.752,136.410 109.607 C 136.361 105.209,138.742 101.966,146.190 96.290 C 150.247 93.199,150.907 91.738,148.476 91.231 C 147.795 91.089,146.522 90.561,145.646 90.058 C 144.611 89.462,143.455 89.143,142.337 89.143 C 140.723 89.143,140.613 89.076,140.500 88.037 L 140.381 86.930 138.526 87.877 M333.524 87.688 C 334.221 88.330,333.890 91.562,332.926 93.534 C 331.029 97.415,324.588 102.765,316.190 107.436 C 308.407 111.766,307.976 112.369,309.616 116.650 L 310.680 119.429 314.007 119.772 L 317.333 120.116 317.333 122.000 C 317.333 123.603,317.162 124.044,316.190 124.952 C 314.480 126.551,314.684 127.516,318.046 133.714 L 321.041 139.238 319.230 141.096 L 317.418 142.954 306.804 134.055 C 300.967 129.161,295.370 124.743,294.367 124.237 L 292.543 123.317 285.224 126.979 C 277.797 130.695,274.675 132.028,269.076 133.874 C 264.823 135.276,264.775 135.360,266.032 139.170 C 268.161 145.618,266.173 145.850,259.551 139.926 L 256.817 137.480 244.214 144.431 C 237.282 148.254,231.741 151.498,231.901 151.639 C 232.060 151.781,235.062 152.559,238.571 153.368 C 242.081 154.178,244.952 154.949,244.952 155.083 C 244.952 155.344,242.528 156.184,209.211 167.463 L 187.374 174.856 187.633 172.784 L 187.892 170.712 183.184 172.547 C 169.440 177.902,147.988 184.481,136.000 187.016 C 120.119 190.374,110.415 189.948,108.449 185.804 C 105.469 179.525,114.043 163.273,123.152 157.935 C 128.498 154.802,129.471 156.186,125.940 161.897 C 114.375 180.601,127.465 183.407,169.524 171.241 C 200.597 162.252,244.716 143.747,251.003 137.066 C 252.851 135.102,253.418 135.656,245.024 131.240 C 241.441 129.356,238.631 127.708,238.779 127.578 C 240.069 126.446,241.594 126.516,248.258 128.015 C 251.947 128.845,254.993 129.524,255.026 129.524 C 255.059 129.524,255.088 128.110,255.091 126.381 C 255.101 120.257,257.189 119.081,261.298 122.886 L 263.592 125.009 269.891 119.999 C 273.356 117.244,276.190 114.865,276.190 114.713 C 276.190 114.561,269.935 111.103,262.290 107.028 C 252.298 101.703,247.718 99.046,246.004 97.583 C 243.860 95.753,241.801 94.524,239.905 93.943 C 238.891 93.632,239.053 91.736,240.183 90.674 L 241.127 89.787 245.802 90.992 C 248.373 91.654,256.905 94.108,264.762 96.444 C 281.391 101.388,281.766 101.458,283.665 99.944 C 286.833 97.418,288.167 97.027,290.539 97.929 C 292.009 98.487,292.178 98.879,292.185 101.733 C 292.195 106.190,292.819 106.174,299.007 101.567 C 310.960 92.667,319.744 88.222,327.224 87.286 C 329.947 86.946,332.924 87.136,333.524 87.688 M262.194 160.626 C 265.077 161.828,267.306 162.930,267.147 163.076 C 266.987 163.221,251.086 167.241,231.810 172.008 C 169.066 187.527,136.856 196.615,142.286 197.269 C 143.771 197.448,146.331 196.886,153.333 194.844 C 192.461 183.434,267.326 166.706,276.381 167.349 C 280.266 167.625,291.331 171.273,290.575 172.028 C 290.498 172.106,287.872 172.525,284.741 172.961 C 271.162 174.850,255.586 177.687,237.714 181.524 C 222.990 184.686,211.023 187.043,200.000 188.955 C 174.356 193.401,147.572 199.508,148.712 200.648 C 149.448 201.384,167.478 198.448,176.967 196.046 C 180.985 195.029,188.849 193.581,228.952 186.476 C 242.676 184.044,256.905 181.471,260.571 180.758 C 287.675 175.486,305.109 175.401,311.230 180.511 L 312.538 181.603 311.662 182.072 C 311.177 182.332,306.684 182.866,301.584 183.270 C 279.538 185.017,268.972 186.447,220.190 194.283 C 207.305 196.353,192.390 198.670,187.048 199.431 C 174.937 201.158,160.315 203.874,140.000 208.170 C 134.405 209.353,132.878 209.422,133.212 208.476 C 134.101 205.955,137.384 204.422,146.000 202.504 C 146.576 202.376,147.048 202.014,147.048 201.700 C 147.048 201.304,146.784 201.188,146.190 201.321 C 145.242 201.534,134.817 203.429,134.591 203.429 C 134.222 203.429,135.471 201.565,136.703 200.277 C 137.907 199.017,138.018 198.745,137.604 198.082 C 136.612 196.493,138.996 193.556,143.238 191.143 C 146.520 189.276,190.735 175.384,212.077 169.515 C 222.866 166.548,229.775 164.552,241.333 161.065 C 253.501 157.394,254.395 157.375,262.194 160.626 M354.401 183.220 C 354.569 183.377,345.858 190.824,335.043 199.767 L 315.380 216.028 309.976 215.637 C 302.358 215.087,280.296 213.823,269.905 213.343 C 265.086 213.120,257.371 212.763,252.762 212.551 C 225.115 211.276,193.814 211.673,175.687 213.528 C 159.952 215.138,152.963 215.627,142.137 215.879 L 131.702 216.122 131.980 214.632 C 132.331 212.752,131.716 213.086,137.591 211.590 C 158.042 206.383,165.425 205.112,230.476 195.595 C 293.658 186.351,351.571 180.568,354.401 183.220 M230.302 225.905 C 294.658 227.699,322.584 229.998,330.251 234.133 L 332.000 235.077 324.952 234.864 C 222.386 231.774,149.787 231.424,127.261 233.913 C 115.788 235.180,135.127 231.079,149.644 229.166 C 173.179 226.064,198.814 225.028,230.302 225.905 M76.476 311.142 C 80.929 311.203,88.214 311.203,92.667 311.142 C 97.119 311.081,93.476 311.032,84.571 311.032 C 75.667 311.032,72.024 311.081,76.476 311.142 M128.476 311.137 C 129.471 311.216,131.100 311.216,132.095 311.137 C 133.090 311.059,132.276 310.994,130.286 310.994 C 128.295 310.994,127.481 311.059,128.476 311.137 M127.143 321.412 C 127.614 321.503,128.386 321.503,128.857 321.412 C 129.329 321.321,128.943 321.247,128.000 321.247 C 127.057 321.247,126.671 321.321,127.143 321.412 M28.857 326.376 C 29.957 326.453,31.757 326.453,32.857 326.376 C 33.957 326.299,33.057 326.236,30.857 326.236 C 28.657 326.236,27.757 326.299,28.857 326.376 M49.429 326.376 C 50.529 326.453,52.329 326.453,53.429 326.376 C 54.529 326.299,53.629 326.236,51.429 326.236 C 49.229 326.236,48.329 326.299,49.429 326.376 M75.333 326.376 C 76.433 326.453,78.233 326.453,79.333 326.376 C 80.433 326.299,79.533 326.236,77.333 326.236 C 75.133 326.236,74.233 326.299,75.333 326.376 M89.810 326.376 C 90.910 326.453,92.710 326.453,93.810 326.376 C 94.910 326.299,94.010 326.236,91.810 326.236 C 89.610 326.236,88.710 326.299,89.810 326.376 M110.381 326.376 C 111.481 326.453,113.281 326.453,114.381 326.376 C 115.481 326.299,114.581 326.236,112.381 326.236 C 110.181 326.236,109.281 326.299,110.381 326.376 M127.531 326.371 C 128.215 326.456,129.244 326.454,129.816 326.367 C 130.389 326.281,129.829 326.211,128.571 326.213 C 127.314 326.215,126.846 326.287,127.531 326.371 M145.429 326.376 C 146.529 326.453,148.329 326.453,149.429 326.376 C 150.529 326.299,149.629 326.236,147.429 326.236 C 145.229 326.236,144.329 326.299,145.429 326.376 M160.298 326.377 C 161.406 326.454,163.120 326.453,164.108 326.375 C 165.096 326.297,164.190 326.233,162.095 326.234 C 160.000 326.235,159.191 326.299,160.298 326.377 M91.408 348.476 L 90.095 349.905 91.524 348.592 C 92.853 347.370,93.128 347.048,92.837 347.048 C 92.773 347.048,92.130 347.690,91.408 348.476 M76.738 348.667 L 75.619 349.905 76.857 348.786 C 78.011 347.743,78.270 347.429,77.976 347.429 C 77.910 347.429,77.353 347.986,76.738 348.667 M26.952 348.459 C 27.424 348.550,28.195 348.550,28.667 348.459 C 29.138 348.369,28.752 348.294,27.810 348.294 C 26.867 348.294,26.481 348.369,26.952 348.459 M106.944 348.465 C 107.620 348.550,108.820 348.551,109.611 348.468 C 110.401 348.386,109.848 348.317,108.381 348.315 C 106.914 348.314,106.268 348.381,106.944 348.465 M121.420 348.465 C 122.096 348.550,123.296 348.551,124.087 348.468 C 124.877 348.386,124.324 348.317,122.857 348.315 C 121.390 348.314,120.744 348.381,121.420 348.465 M158.196 348.464 C 158.775 348.551,159.632 348.549,160.100 348.459 C 160.569 348.368,160.095 348.297,159.048 348.299 C 158.000 348.302,157.617 348.376,158.196 348.464 M24.286 351.519 C 25.386 351.596,27.186 351.596,28.286 351.519 C 29.386 351.442,28.486 351.379,26.286 351.379 C 24.086 351.379,23.186 351.442,24.286 351.519 M43.143 351.501 C 43.510 351.597,44.110 351.597,44.476 351.501 C 44.843 351.405,44.543 351.326,43.810 351.326 C 43.076 351.326,42.776 351.405,43.143 351.501 M139.143 351.501 C 139.510 351.597,140.110 351.597,140.476 351.501 C 140.843 351.405,140.543 351.326,139.810 351.326 C 139.076 351.326,138.776 351.405,139.143 351.501 M68.095 362.571 C 72.129 362.633,78.729 362.633,82.762 362.571 C 86.795 362.509,83.495 362.459,75.429 362.459 C 67.362 362.459,64.062 362.509,68.095 362.571 M106.762 362.571 C 110.062 362.634,115.462 362.634,118.762 362.571 C 122.062 362.507,119.362 362.455,112.762 362.455 C 106.162 362.455,103.462 362.507,106.762 362.571 M66.571 365.619 C 71.024 365.680,78.310 365.680,82.762 365.619 C 87.214 365.558,83.571 365.508,74.667 365.508 C 65.762 365.508,62.119 365.558,66.571 365.619 M105.429 365.618 C 109.043 365.681,114.957 365.681,118.571 365.618 C 122.186 365.556,119.229 365.505,112.000 365.505 C 104.771 365.505,101.814 365.556,105.429 365.618 " stroke="none" fill="#c3e3f3" fill-rule="evenodd"></path><path id="path3" d="M331.238 183.471 C 301.820 185.827,264.285 190.587,202.124 199.844 C 163.284 205.628,155.429 207.058,137.591 211.592 C 131.746 213.078,132.365 212.740,132.022 214.633 L 131.752 216.123 141.781 215.874 C 152.901 215.597,160.289 215.051,177.524 213.231 L 189.143 212.004 216.000 212.009 C 231.803 212.012,247.248 212.213,253.524 212.498 C 276.426 213.538,299.257 214.787,310.450 215.612 C 313.055 215.804,315.387 215.841,315.634 215.695 C 317.976 214.304,354.599 183.430,354.204 183.179 C 353.449 182.701,338.482 182.891,331.238 183.471 M194.095 225.903 C 170.742 226.541,149.190 228.642,133.524 231.808 C 127.727 232.979,121.711 234.546,124.762 234.090 C 139.168 231.936,199.083 231.535,265.143 233.150 C 289.107 233.737,319.911 234.619,326.000 234.894 C 328.986 235.029,331.429 235.038,331.429 234.913 C 331.429 233.632,323.068 231.546,312.868 230.284 C 291.146 227.594,223.503 225.100,194.095 225.903 " stroke="none" fill="#30306e" fill-rule="evenodd"></path><path id="path4" d="M66.357 310.850 C 63.967 312.580,63.773 313.106,62.224 322.000 C 60.771 330.344,60.484 331.279,60.047 329.092 C 59.445 326.083,56.941 324.950,50.905 324.956 C 42.615 324.964,40.976 326.916,38.843 339.319 C 37.093 349.503,38.334 352.762,43.963 352.762 C 51.821 352.762,54.173 339.041,46.491 338.011 C 44.780 337.781,44.788 337.805,45.363 334.641 C 46.052 330.842,46.276 330.667,50.438 330.667 C 55.356 330.667,55.220 329.182,51.981 347.538 C 49.984 358.859,49.270 363.714,49.510 364.345 C 50.370 366.607,54.016 367.699,55.558 366.156 C 56.238 365.476,56.284 365.476,57.124 366.156 C 57.934 366.813,59.036 366.857,74.444 366.857 L 90.898 366.857 92.660 365.740 C 94.491 364.579,95.179 363.652,95.646 361.714 C 95.883 360.734,95.929 360.842,95.969 362.476 C 96.019 364.480,96.681 365.673,98.165 366.432 C 100.032 367.386,125.350 366.986,127.273 365.971 C 131.612 363.682,132.835 355.048,128.820 355.048 C 127.021 355.048,125.913 356.146,125.551 358.286 C 125.018 361.434,126.268 361.143,113.266 361.143 L 101.632 361.143 101.838 360.286 C 101.951 359.814,102.233 358.314,102.463 356.952 C 102.694 355.590,102.967 354.048,103.070 353.524 L 103.259 352.571 108.106 352.571 C 111.948 352.571,113.197 352.437,114.134 351.924 C 115.245 351.316,115.369 351.316,116.229 351.924 C 116.980 352.456,118.060 352.571,122.286 352.571 C 129.211 352.571,131.715 351.183,133.168 346.537 L 133.663 344.952 133.689 346.300 C 133.833 353.905,144.068 355.060,146.497 347.746 C 148.195 342.635,146.514 338.550,142.491 338.011 C 140.780 337.781,140.788 337.805,141.363 334.641 C 142.052 330.842,142.276 330.667,146.438 330.667 C 151.356 330.667,151.220 329.182,147.981 347.538 C 144.983 364.532,144.982 364.552,146.880 366.045 C 150.025 368.519,154.786 364.690,152.013 361.918 C 150.877 360.782,155.949 331.922,157.452 330.966 C 158.347 330.397,164.957 330.617,165.190 331.223 C 165.535 332.124,163.021 345.635,162.369 346.381 C 161.931 346.883,161.197 347.048,159.401 347.048 C 155.920 347.048,154.667 347.995,154.667 350.626 C 154.667 354.046,163.545 353.354,166.624 349.695 C 168.136 347.899,168.307 347.329,169.754 339.254 C 171.567 329.133,171.318 327.413,167.791 325.705 C 165.588 324.639,157.992 324.707,155.841 325.812 C 154.605 326.447,154.491 326.448,153.556 325.820 C 152.076 324.826,144.206 324.625,141.861 325.520 C 139.480 326.430,137.944 327.842,136.902 330.080 C 136.410 331.136,136.005 331.743,136.002 331.429 C 135.974 328.719,134.028 325.931,131.733 325.313 C 130.587 325.004,130.300 324.786,130.618 324.468 C 132.507 322.579,130.725 320.000,127.530 320.000 C 125.113 320.000,124.532 319.557,124.835 317.944 C 125.425 314.803,130.314 314.229,133.699 316.905 C 136.706 319.281,138.984 318.131,138.569 314.445 C 137.784 307.482,122.628 307.955,119.935 315.026 C 118.044 319.992,119.626 324.706,123.440 325.469 C 124.400 325.661,124.600 325.852,124.396 326.380 C 123.252 329.335,124.180 330.667,127.382 330.667 C 130.418 330.667,130.409 330.617,128.949 338.849 C 127.439 347.363,127.668 347.048,122.988 347.048 C 118.498 347.048,118.579 347.263,120.039 339.187 C 122.254 326.935,121.410 325.255,112.920 325.010 C 105.396 324.793,99.681 328.796,101.328 333.129 C 102.091 335.136,106.667 334.522,106.667 332.412 C 106.667 331.144,108.006 330.667,111.566 330.667 C 115.932 330.667,115.831 330.457,114.703 337.131 C 112.941 347.568,113.252 347.048,108.770 347.048 L 105.595 347.048 104.000 345.143 C 101.133 341.719,99.150 342.824,98.295 348.322 C 97.793 351.545,97.749 351.645,97.243 350.679 C 96.775 349.786,96.802 349.490,97.480 348.074 C 98.733 345.458,101.047 331.221,100.525 329.338 C 99.943 327.237,97.951 325.444,95.848 325.129 C 93.051 324.709,86.794 325.078,85.514 325.738 C 84.456 326.284,84.238 326.277,82.848 325.652 C 78.505 323.702,70.507 325.080,67.841 328.237 C 67.032 329.195,66.664 329.446,66.795 328.952 C 66.905 328.533,67.462 325.319,68.033 321.810 L 69.070 315.429 83.525 315.429 L 97.980 315.429 97.729 317.619 C 97.433 320.216,97.938 321.173,99.633 321.221 C 102.251 321.296,102.882 320.566,103.618 316.615 C 104.232 313.319,104.127 312.799,102.521 311.193 L 101.042 309.714 84.483 309.714 L 67.924 309.714 66.357 310.850 M100.923 311.223 C 102.826 312.241,103.191 316.379,101.641 319.356 C 100.800 320.972,98.837 320.030,99.014 318.095 C 99.101 317.152,99.187 315.952,99.205 315.429 L 99.238 314.476 83.757 314.377 C 69.732 314.287,68.253 314.336,68.037 314.899 C 67.767 315.601,60.190 360.798,60.190 361.703 C 60.190 362.493,90.326 362.597,90.951 361.810 C 91.432 361.203,93.101 351.641,92.782 351.322 C 92.650 351.190,92.081 351.075,91.516 351.065 C 89.803 351.036,89.988 349.852,92.029 347.780 L 93.846 345.936 95.108 338.968 C 96.880 329.190,97.024 329.524,91.023 329.524 C 85.193 329.524,85.527 329.089,83.787 338.934 C 82.379 346.901,81.775 348.523,79.704 349.894 C 76.124 352.263,74.596 350.782,77.539 347.794 L 79.341 345.964 80.608 338.982 C 82.122 330.642,82.086 331.229,81.143 330.286 C 80.477 329.620,79.873 329.524,76.364 329.524 C 70.787 329.524,70.974 329.287,69.371 338.377 L 68.112 345.514 69.288 347.598 C 71.191 350.970,69.231 352.593,66.392 349.995 C 64.634 348.387,64.604 347.351,66.077 339.043 C 67.552 330.726,67.855 329.851,69.875 328.077 C 72.359 325.897,79.195 325.269,82.584 326.910 C 84.232 327.707,84.295 327.710,85.657 327.033 C 89.127 325.310,96.660 325.911,98.464 328.055 C 100.295 330.231,97.823 346.965,95.370 349.001 C 94.682 349.572,94.718 350.476,95.429 350.476 C 96.206 350.476,96.165 351.844,95.227 357.256 C 94.270 362.774,94.119 363.130,92.147 364.559 L 90.552 365.714 74.559 365.714 L 58.566 365.714 57.313 364.385 C 56.202 363.208,56.096 362.914,56.383 361.814 C 56.561 361.130,58.539 350.114,60.779 337.333 C 65.167 312.300,64.915 313.249,67.619 311.570 C 68.912 310.767,99.477 310.448,100.923 311.223 M135.656 311.733 C 137.310 312.835,138.091 315.471,137.067 316.495 C 136.351 317.211,135.810 317.052,134.095 315.619 C 130.981 313.017,124.683 313.784,123.826 316.868 C 122.941 320.055,123.579 320.884,127.112 321.143 C 131.372 321.455,130.903 324.571,126.595 324.571 C 120.102 324.571,117.945 317.723,122.957 313.017 C 125.319 310.800,133.076 310.015,135.656 311.733 M25.428 325.477 C 21.143 327.063,19.966 329.332,18.272 339.265 C 16.250 351.117,17.495 353.016,27.085 352.708 C 32.157 352.546,34.132 351.707,35.965 348.937 C 40.389 342.252,32.462 337.250,25.133 342.102 C 23.055 343.477,23.152 343.962,24.256 337.714 C 25.535 330.469,25.417 330.613,30.006 330.748 L 33.692 330.857 34.084 332.190 C 34.678 334.208,34.967 334.476,36.552 334.476 C 40.599 334.476,41.068 328.758,37.244 326.030 C 35.686 324.919,27.917 324.555,25.428 325.477 M35.567 326.621 C 37.417 327.393,38.476 328.937,38.476 330.862 C 38.476 333.644,35.912 334.445,35.380 331.828 C 34.974 329.830,34.257 329.524,29.997 329.524 C 24.278 329.524,24.551 329.177,22.858 338.596 C 21.511 346.088,21.482 346.720,22.452 347.597 C 23.415 348.469,24.160 348.059,23.581 346.976 C 22.264 344.516,28.437 340.723,32.515 341.488 C 36.966 342.323,37.140 347.281,32.824 350.281 C 31.199 351.410,31.094 351.429,26.348 351.429 C 18.137 351.429,17.610 350.562,19.424 340.043 C 21.591 327.481,22.629 326.209,30.774 326.130 C 32.992 326.108,34.779 326.291,35.567 326.621 M56.139 326.621 C 59.718 328.116,59.731 328.711,56.571 346.638 C 53.773 362.514,53.798 362.279,54.885 362.564 C 56.481 362.981,54.968 365.714,53.142 365.714 C 50.106 365.714,50.111 365.221,53.329 347.040 C 56.390 329.750,56.217 331.265,55.238 330.286 C 54.575 329.623,53.968 329.524,50.561 329.524 C 44.961 329.524,44.810 329.682,43.767 336.665 C 43.228 340.268,43.296 340.450,44.844 339.561 C 47.260 338.175,49.901 340.602,49.903 344.211 C 49.909 351.216,42.345 354.290,39.480 348.446 C 38.083 345.595,41.234 330.630,43.733 328.256 C 45.902 326.194,52.907 325.270,56.139 326.621 M117.091 326.621 C 120.314 327.967,120.531 329.442,118.863 338.667 C 117.138 348.205,117.132 348.190,122.832 348.190 C 128.804 348.190,128.570 348.489,130.273 338.651 C 131.829 329.656,131.876 329.839,127.937 329.525 C 123.841 329.199,124.321 326.095,128.466 326.095 C 132.238 326.095,134.476 327.933,134.476 331.031 C 134.476 334.772,131.959 346.971,130.900 348.358 C 128.415 351.616,120.953 352.901,116.953 350.761 L 115.238 349.843 113.189 350.782 C 111.285 351.653,110.824 351.707,106.665 351.535 L 102.190 351.351 101.381 355.984 C 100.936 358.532,100.571 360.992,100.571 361.451 L 100.571 362.286 113.129 362.286 C 127.291 362.286,126.147 362.551,126.641 359.147 C 126.938 357.097,127.723 356.097,128.905 356.265 C 130.783 356.533,129.593 362.756,127.333 364.480 L 125.965 365.524 112.507 365.637 L 99.049 365.751 98.096 364.797 C 96.864 363.566,96.877 363.287,98.609 353.602 C 100.404 343.572,100.538 343.358,103.259 346.197 L 105.171 348.190 108.755 348.190 C 114.071 348.190,113.975 348.319,115.627 339.048 C 116.354 334.962,116.951 331.490,116.951 331.333 C 116.964 328.380,106.772 328.795,105.528 331.799 C 104.779 333.608,102.476 333.872,102.476 332.149 C 102.476 327.692,111.493 324.282,117.091 326.621 M153.157 327.188 L 154.376 328.090 155.941 327.210 C 159.085 325.443,166.409 325.706,168.359 327.656 C 170.060 329.357,170.085 330.461,168.609 338.749 C 167.159 346.888,166.819 347.857,164.792 349.637 C 161.235 352.759,153.416 352.108,156.571 348.952 C 157.166 348.358,157.841 348.190,159.644 348.190 C 163.749 348.190,163.765 348.165,165.306 339.394 C 167.093 329.219,167.215 329.524,161.357 329.524 C 155.105 329.524,155.806 328.060,152.205 348.620 C 149.799 362.360,149.831 362.017,150.884 362.716 C 152.792 363.983,150.042 366.426,147.960 365.312 C 146.360 364.456,146.431 363.499,149.292 347.239 C 152.618 328.338,152.812 329.524,146.396 329.524 C 140.985 329.524,140.805 329.717,139.767 336.665 C 139.228 340.268,139.296 340.450,140.844 339.561 C 143.260 338.175,145.901 340.602,145.903 344.211 C 145.909 351.216,138.345 354.290,135.480 348.446 C 134.083 345.595,137.234 330.630,139.733 328.256 C 142.250 325.863,150.483 325.208,153.157 327.188 M80.275 331.321 C 80.606 332.184,78.546 344.341,77.893 345.375 C 77.614 345.817,76.682 346.991,75.822 347.985 C 72.839 351.433,75.389 353.694,79.647 351.377 C 82.797 349.662,83.299 348.548,84.915 339.675 C 86.637 330.223,86.344 330.667,90.857 330.667 C 95.552 330.667,95.399 330.284,93.958 338.401 L 92.755 345.183 90.949 347.231 C 88.697 349.785,88.473 351.433,90.286 352.117 C 91.623 352.621,91.635 352.769,90.731 357.524 L 90.080 360.952 75.765 361.052 L 61.451 361.152 62.530 354.766 C 63.123 351.254,63.615 348.210,63.622 348.000 C 63.630 347.790,63.961 348.334,64.357 349.208 C 65.618 351.985,68.627 353.155,70.572 351.626 C 71.922 350.564,71.904 349.469,70.498 347.168 L 69.377 345.333 70.524 338.857 C 72.018 330.415,71.837 330.667,76.402 330.667 C 79.474 330.667,80.062 330.766,80.275 331.321 M42.897 341.650 C 42.789 341.824,42.586 343.089,42.446 344.460 C 41.963 349.172,45.578 350.339,46.629 345.809 C 46.975 344.318,43.583 340.539,42.897 341.650 M138.897 341.650 C 138.789 341.824,138.586 343.089,138.446 344.460 C 137.963 349.172,141.578 350.339,142.629 345.809 C 142.975 344.318,139.583 340.539,138.897 341.650 M45.179 344.959 C 45.299 345.440,45.195 346.213,44.948 346.676 C 44.232 348.012,43.247 346.803,43.584 345.003 C 43.871 343.477,44.800 343.452,45.179 344.959 M141.179 344.959 C 141.299 345.440,141.195 346.213,140.948 346.676 C 140.232 348.012,139.247 346.803,139.584 345.003 C 139.871 343.477,140.800 343.452,141.179 344.959 M28.190 345.020 C 27.283 345.363,25.152 347.517,25.371 347.870 C 25.868 348.675,30.787 348.215,31.884 347.261 C 33.730 345.655,30.959 343.974,28.190 345.020 M31.238 346.278 C 31.238 346.763,29.662 347.154,28.515 346.955 L 27.619 346.799 28.571 346.376 C 29.774 345.842,31.238 345.788,31.238 346.278 M235.090 360.532 C 230.632 363.002,233.161 368.357,238.791 368.372 C 243.092 368.384,244.385 367.301,244.104 363.919 C 243.809 360.352,238.806 358.472,235.090 360.532 M298.020 360.456 C 293.793 362.498,296.259 368.621,301.182 368.309 C 303.498 368.162,304.103 366.382,301.905 366.181 C 299.253 365.939,299.048 365.798,299.048 364.224 C 299.048 362.585,299.439 362.286,301.580 362.286 C 302.434 362.286,303.387 362.651,304.250 363.310 C 306.564 365.074,308.034 363.213,305.962 361.142 C 304.724 359.904,300.006 359.496,298.020 360.456 M330.782 360.456 C 326.555 362.498,329.021 368.621,333.944 368.309 C 336.260 368.162,336.865 366.382,334.667 366.181 C 332.015 365.939,331.810 365.798,331.810 364.224 C 331.810 362.585,332.201 362.286,334.342 362.286 C 335.196 362.286,336.149 362.651,337.012 363.310 C 339.326 365.074,340.796 363.213,338.724 361.142 C 337.486 359.904,332.768 359.496,330.782 360.456 M355.163 360.456 C 350.936 362.498,353.402 368.621,358.325 368.309 C 360.641 368.162,361.246 366.382,359.048 366.181 C 356.396 365.939,356.190 365.798,356.190 364.224 C 356.190 362.585,356.582 362.286,358.723 362.286 C 359.577 362.286,360.530 362.651,361.393 363.310 C 363.707 365.074,365.177 363.213,363.105 361.142 C 361.867 359.904,357.149 359.496,355.163 360.456 M240.925 362.884 C 242.836 364.795,239.770 367.006,236.793 365.864 C 236.056 365.581,235.952 362.826,236.667 362.538 C 237.754 362.099,240.351 362.310,240.925 362.884 M115.458 369.748 C 114.003 370.973,113.744 373.778,115.023 374.463 C 117.417 375.744,119.852 374.340,118.000 372.747 C 116.736 371.660,117.267 371.048,119.474 371.048 C 122.839 371.048,122.955 371.481,120.381 374.441 C 118.066 377.102,118.063 376.752,120.416 379.240 C 122.682 381.635,122.588 382.095,119.834 382.095 C 117.751 382.095,117.146 381.742,116.893 380.381 C 116.626 378.945,114.502 379.348,114.356 380.862 C 114.127 383.249,115.862 384.381,119.751 384.381 C 125.346 384.381,127.259 381.457,123.642 378.434 L 121.951 377.020 123.568 375.081 C 124.458 374.015,125.480 372.671,125.840 372.095 C 126.621 370.843,129.746 370.562,130.830 371.646 C 131.688 372.504,131.706 377.987,130.850 377.659 C 128.347 376.698,125.502 381.829,127.456 383.782 C 128.282 384.609,131.375 384.561,132.432 383.706 C 135.006 381.621,134.839 370.560,132.212 369.154 C 131.212 368.619,125.979 368.658,124.769 369.209 C 124.019 369.550,123.684 369.550,123.342 369.209 C 122.394 368.261,116.768 368.646,115.458 369.748 M135.971 369.875 L 134.857 370.989 134.857 376.571 L 134.857 382.154 135.971 383.267 C 138.786 386.082,145.905 384.328,145.905 380.819 C 145.905 377.456,140.415 376.742,138.012 379.792 C 137.640 380.265,137.546 379.550,137.536 376.171 C 137.522 371.273,137.648 371.048,140.410 371.048 C 142.438 371.048,143.048 371.410,143.295 372.762 C 143.587 374.356,145.905 374.013,145.905 372.376 C 145.905 369.785,144.342 368.762,140.381 368.762 C 137.245 368.762,137.030 368.816,135.971 369.875 M148.188 369.848 L 147.048 370.989 147.048 376.571 L 147.048 382.154 148.161 383.267 C 149.340 384.446,154.449 384.932,156.141 384.027 C 157.403 383.351,158.002 384.216,157.006 385.276 C 155.196 387.203,155.743 391.327,157.941 392.328 C 159.128 392.869,163.987 392.898,164.973 392.370 C 167.362 391.092,167.269 384.415,164.863 384.372 C 164.597 384.368,164.745 384.069,165.194 383.706 C 166.628 382.544,166.857 381.551,166.856 376.501 C 166.854 369.247,166.240 368.512,160.515 368.903 C 156.946 369.147,157.267 369.147,152.855 368.903 C 149.338 368.708,149.326 368.711,148.188 369.848 M169.114 369.875 L 168.000 370.989 168.000 376.571 L 168.000 382.154 169.114 383.267 C 171.929 386.082,179.048 384.328,179.048 380.819 C 179.048 377.456,173.558 376.742,171.155 379.792 C 170.782 380.265,170.689 379.550,170.679 376.171 C 170.665 371.273,170.791 371.048,173.553 371.048 C 175.581 371.048,176.191 371.410,176.438 372.762 C 176.730 374.356,179.048 374.013,179.048 372.376 C 179.048 369.785,177.485 368.762,173.524 368.762 C 170.388 368.762,170.173 368.816,169.114 369.875 M180.950 369.848 L 179.810 370.989 179.810 376.571 L 179.810 382.154 180.923 383.267 C 182.102 384.446,187.210 384.932,188.903 384.027 C 190.164 383.351,190.764 384.216,189.768 385.276 C 187.958 387.203,188.505 391.327,190.703 392.328 C 191.890 392.869,196.749 392.898,197.735 392.370 C 200.123 391.092,200.031 384.415,197.625 384.372 C 197.359 384.368,197.507 384.069,197.955 383.706 C 199.390 382.544,199.619 381.551,199.618 376.501 C 199.616 369.247,199.002 368.512,193.277 368.903 C 189.708 369.147,190.029 369.147,185.617 368.903 C 182.100 368.708,182.088 368.711,180.950 369.848 M201.934 369.748 C 200.479 370.973,200.220 373.778,201.499 374.463 C 203.893 375.744,206.328 374.340,204.476 372.747 C 203.212 371.660,203.743 371.048,205.950 371.048 C 209.316 371.048,209.431 371.481,206.857 374.441 C 204.542 377.102,204.539 376.752,206.893 379.240 C 209.158 381.635,209.064 382.095,206.310 382.095 C 204.228 382.095,203.622 381.742,203.369 380.381 C 203.103 378.945,200.979 379.348,200.833 380.862 C 200.603 383.249,202.339 384.381,206.227 384.381 C 211.822 384.381,213.735 381.457,210.118 378.434 L 208.427 377.020 210.044 375.081 C 210.934 374.015,211.956 372.671,212.316 372.095 C 213.097 370.843,216.222 370.562,217.306 371.646 C 218.164 372.504,218.182 377.987,217.326 377.659 C 214.823 376.698,211.979 381.829,213.932 383.782 C 214.759 384.609,217.852 384.561,218.908 383.706 C 221.482 381.621,221.315 370.560,218.688 369.154 C 217.688 368.619,212.455 368.658,211.246 369.209 C 210.496 369.550,210.160 369.550,209.818 369.209 C 208.870 368.261,203.244 368.646,201.934 369.748 M222.474 369.848 L 221.333 370.989 221.333 376.513 C 221.333 381.900,221.358 382.066,222.320 383.209 C 224.287 385.548,226.784 384.340,224.951 381.937 C 224.065 380.775,224.000 380.392,224.000 376.326 C 224.000 371.267,224.119 371.048,226.857 371.048 C 229.601 371.048,229.714 371.259,229.714 376.406 C 229.714 380.273,229.615 380.975,228.952 381.818 C 227.138 384.125,229.333 385.559,231.446 383.446 C 232.346 382.546,232.381 382.320,232.381 377.378 C 232.381 371.364,232.533 371.048,235.429 371.048 C 238.228 371.048,238.476 371.478,238.476 376.320 C 238.476 380.073,238.399 380.509,237.493 381.842 C 236.480 383.332,236.488 384.381,237.512 384.381 C 237.994 384.381,238.095 385.001,238.095 387.973 C 238.095 392.271,238.404 392.762,241.111 392.762 C 244.261 392.762,244.190 393.053,244.190 380.041 L 244.190 368.714 242.952 368.833 L 241.714 368.952 241.613 379.714 C 241.550 386.453,241.372 390.476,241.137 390.476 C 240.920 390.476,240.762 389.116,240.762 387.261 C 240.762 385.492,240.589 383.938,240.377 383.807 C 240.133 383.656,240.203 383.267,240.567 382.747 C 241.011 382.114,241.143 380.761,241.143 376.849 C 241.143 369.365,240.519 368.555,235.015 368.902 C 231.162 369.145,231.512 369.145,227.141 368.903 C 223.623 368.708,223.612 368.711,222.474 369.848 M244.952 380.094 C 244.952 393.058,244.916 392.886,247.633 392.693 C 249.728 392.543,250.452 390.724,248.601 390.259 L 247.631 390.016 247.530 379.484 L 247.429 368.952 246.190 368.833 L 244.952 368.714 244.952 380.094 M255.209 369.875 L 254.095 370.989 254.095 376.571 L 254.095 382.154 255.209 383.267 C 258.024 386.082,265.143 384.328,265.143 380.819 C 265.143 377.456,259.654 376.742,257.250 379.792 C 256.878 380.265,256.784 379.550,256.774 376.171 C 256.760 371.273,256.886 371.048,259.649 371.048 C 261.676 371.048,262.286 371.410,262.534 372.762 C 262.825 374.356,265.143 374.013,265.143 372.376 C 265.143 369.785,263.580 368.762,259.619 368.762 C 256.483 368.762,256.268 368.816,255.209 369.875 M267.426 369.848 C 265.703 371.571,265.759 373.813,267.521 373.643 C 268.402 373.558,268.796 373.306,268.895 372.762 C 269.142 371.410,269.753 371.048,271.780 371.048 C 274.542 371.048,274.669 371.273,274.655 376.171 C 274.645 379.550,274.551 380.265,274.178 379.792 C 271.717 376.668,266.286 377.462,266.286 380.946 C 266.286 383.579,267.879 384.475,272.155 384.248 C 276.384 384.023,275.700 384.022,279.779 384.250 C 285.439 384.567,286.095 383.780,286.095 376.667 C 286.095 371.234,286.190 371.048,288.952 371.048 C 291.708 371.048,291.810 371.243,291.810 376.571 C 291.810 381.796,291.673 382.095,289.298 382.095 C 288.229 382.095,287.628 382.284,287.481 382.667 C 286.677 384.762,291.387 385.243,293.363 383.267 L 294.476 382.154 294.476 376.571 L 294.476 370.989 293.336 369.848 C 292.199 368.712,292.181 368.708,288.669 368.894 C 286.730 368.996,284.929 369.073,284.667 369.065 C 284.096 369.048,277.235 369.062,276.286 369.083 C 275.919 369.091,274.032 369.010,272.093 368.903 C 268.576 368.708,268.564 368.711,267.426 369.848 M296.733 369.875 L 295.619 370.989 295.619 376.571 L 295.619 382.154 296.733 383.267 C 299.488 386.023,306.870 384.323,306.591 380.997 C 306.455 379.363,304.344 378.850,304.059 380.381 C 303.808 381.733,303.199 382.095,301.172 382.095 C 298.384 382.095,298.286 381.908,298.286 376.571 C 298.286 371.235,298.384 371.048,301.172 371.048 C 303.200 371.048,303.810 371.410,304.057 372.762 C 304.349 374.356,306.667 374.013,306.667 372.376 C 306.667 369.785,305.104 368.762,301.143 368.762 C 298.007 368.762,297.792 368.816,296.733 369.875 M308.923 369.875 L 307.810 370.989 307.810 376.571 L 307.810 382.154 308.923 383.267 C 310.452 384.796,313.181 384.877,314.134 383.422 C 315.588 381.203,313.678 376.000,311.409 376.000 C 310.537 376.000,310.476 375.869,310.476 373.981 C 310.476 371.471,310.888 371.048,313.333 371.048 C 316.093 371.048,316.190 371.237,316.190 376.630 C 316.190 382.488,317.070 384.381,319.791 384.381 C 320.279 384.381,320.381 384.959,320.381 387.725 C 320.381 392.071,320.849 392.849,323.369 392.686 C 325.660 392.538,326.184 391.112,324.220 390.371 C 323.059 389.932,323.048 389.902,323.048 387.155 L 323.048 384.381 324.220 384.381 C 325.007 384.381,325.757 384.016,326.505 383.267 L 327.619 382.154 327.619 376.571 L 327.619 370.989 326.505 369.875 C 324.996 368.366,322.286 368.234,322.286 369.669 C 322.286 370.258,322.753 370.933,323.619 371.593 L 324.952 372.610 324.952 376.754 C 324.952 381.673,324.711 382.095,321.905 382.095 C 319.013 382.095,318.857 381.773,318.857 375.816 L 318.857 370.734 317.685 369.748 C 315.834 368.191,310.531 368.268,308.923 369.875 M329.316 369.697 C 328.406 370.607,328.381 370.784,328.381 376.393 L 328.381 382.154 329.495 383.267 C 330.554 384.327,330.769 384.381,333.905 384.381 C 337.041 384.381,337.256 384.327,338.315 383.267 L 339.429 382.154 339.429 376.630 C 339.429 371.243,339.404 371.077,338.442 369.934 C 336.474 367.595,333.978 368.803,335.811 371.206 C 336.697 372.368,336.762 372.751,336.762 376.817 C 336.762 381.876,336.643 382.095,333.905 382.095 C 331.160 382.095,331.048 381.884,331.048 376.737 C 331.048 372.870,331.147 372.167,331.810 371.325 C 333.624 369.017,331.429 367.584,329.316 369.697 M341.685 369.875 L 340.571 370.989 340.571 376.571 L 340.571 382.154 341.685 383.267 C 344.440 386.023,351.822 384.323,351.544 380.997 C 351.407 379.363,349.296 378.850,349.012 380.381 C 348.761 381.733,348.151 382.095,346.125 382.095 C 343.336 382.095,343.238 381.908,343.238 376.571 C 343.238 371.235,343.336 371.048,346.125 371.048 C 348.152 371.048,348.763 371.410,349.010 372.762 C 349.301 374.356,351.619 374.013,351.619 372.376 C 351.619 369.785,350.056 368.762,346.095 368.762 C 342.959 368.762,342.744 368.816,341.685 369.875 M354.235 369.897 C 352.368 371.764,352.735 374.218,355.149 375.996 L 356.964 377.333 355.380 377.557 C 351.575 378.093,352.120 384.381,355.971 384.381 C 356.950 384.381,356.952 384.388,356.958 387.714 C 356.965 392.309,357.140 392.831,358.621 392.687 L 359.810 392.571 359.918 388.476 C 360.019 384.626,360.073 384.381,360.813 384.381 C 361.792 384.381,364.191 382.039,364.189 381.086 C 364.186 379.358,361.131 376.312,356.888 373.806 C 355.069 372.732,355.697 371.048,357.917 371.048 C 359.397 371.048,359.694 371.319,359.156 372.181 C 358.116 373.846,360.215 374.779,361.910 373.406 C 363.108 372.436,363.032 370.751,361.741 369.640 C 360.074 368.207,355.778 368.353,354.235 369.897 M248.838 369.600 C 247.928 370.510,248.261 374.051,249.281 374.307 C 251.856 374.953,252.753 374.441,252.878 372.255 C 253.039 369.447,250.596 367.842,248.838 369.600 M365.410 369.600 C 364.500 370.510,364.832 374.051,365.852 374.307 C 368.427 374.953,369.324 374.441,369.450 372.255 C 369.610 369.447,367.168 367.842,365.410 369.600 M251.048 371.810 C 251.048 372.438,250.876 372.952,250.667 372.952 C 250.457 372.952,250.286 372.438,250.286 371.810 C 250.286 371.181,250.457 370.667,250.667 370.667 C 250.876 370.667,251.048 371.181,251.048 371.810 M367.619 371.810 C 367.619 372.438,367.448 372.952,367.238 372.952 C 367.029 372.952,366.857 372.438,366.857 371.810 C 366.857 371.181,367.029 370.667,367.238 370.667 C 367.448 370.667,367.619 371.181,367.619 371.810 M154.971 371.505 C 155.603 372.137,155.603 381.006,154.971 381.638 C 154.720 381.890,153.640 382.095,152.571 382.095 C 149.815 382.095,149.714 381.900,149.714 376.571 C 149.714 371.243,149.815 371.048,152.571 371.048 C 153.640 371.048,154.720 371.253,154.971 371.505 M163.592 371.646 C 164.066 372.120,164.190 373.146,164.190 376.571 C 164.190 381.692,163.968 382.095,161.143 382.095 C 158.318 382.095,158.095 381.692,158.095 376.571 C 158.095 371.451,158.318 371.048,161.143 371.048 C 162.317 371.048,163.212 371.266,163.592 371.646 M187.733 371.505 C 188.365 372.137,188.365 381.006,187.733 381.638 C 187.482 381.890,186.402 382.095,185.333 382.095 C 182.577 382.095,182.476 381.900,182.476 376.571 C 182.476 371.243,182.577 371.048,185.333 371.048 C 186.402 371.048,187.482 371.253,187.733 371.505 M196.354 371.646 C 196.828 372.120,196.952 373.146,196.952 376.571 C 196.952 381.692,196.730 382.095,193.905 382.095 C 191.080 382.095,190.857 381.692,190.857 376.571 C 190.857 371.451,191.080 371.048,193.905 371.048 C 195.079 371.048,195.974 371.266,196.354 371.646 M282.624 371.394 C 283.507 371.953,283.726 380.601,282.879 381.447 C 282.025 382.302,278.769 382.334,277.932 381.497 C 277.061 380.625,277.061 372.518,277.932 371.646 C 278.587 370.991,281.722 370.823,282.624 371.394 M312.000 381.185 C 312.000 381.686,311.863 382.095,311.695 382.095 C 311.007 382.095,310.477 381.100,310.489 379.829 L 310.502 378.476 311.251 379.376 C 311.663 379.870,312.000 380.684,312.000 381.185 M248.857 379.291 C 248.560 379.417,248.381 380.265,248.381 381.548 C 248.381 383.839,248.829 384.185,251.471 383.933 L 252.762 383.810 252.762 381.524 L 252.762 379.238 251.048 379.164 C 250.105 379.123,249.119 379.180,248.857 379.291 M365.429 379.291 C 365.131 379.417,364.952 380.265,364.952 381.548 C 364.952 383.839,365.401 384.185,368.043 383.933 L 369.333 383.810 369.333 381.524 L 369.333 379.238 367.619 379.164 C 366.676 379.123,365.690 379.180,365.429 379.291 M360.976 381.295 C 360.515 382.041,360.091 381.742,359.916 380.550 C 359.746 379.393,359.750 379.390,360.490 380.130 C 360.900 380.540,361.119 381.064,360.976 381.295 M131.258 380.888 C 131.018 381.646,129.972 382.289,129.595 381.912 C 129.484 381.802,129.795 381.284,130.286 380.762 C 131.278 379.705,131.620 379.750,131.258 380.888 M217.735 380.888 C 217.494 381.646,216.448 382.289,216.071 381.912 C 215.960 381.802,216.271 381.284,216.762 380.762 C 217.755 379.705,218.096 379.750,217.735 380.888 M143.058 380.588 C 143.462 381.242,142.460 382.095,141.287 382.095 C 139.975 382.095,139.880 381.594,141.037 380.784 C 142.022 380.094,142.711 380.027,143.058 380.588 M176.201 380.588 C 176.605 381.242,175.603 382.095,174.430 382.095 C 173.118 382.095,173.023 381.594,174.180 380.784 C 175.165 380.094,175.854 380.027,176.201 380.588 M262.296 380.588 C 262.700 381.242,261.698 382.095,260.525 382.095 C 259.213 382.095,259.118 381.594,260.275 380.784 C 261.260 380.094,261.949 380.027,262.296 380.588 M271.153 380.784 C 272.311 381.594,272.215 382.095,270.904 382.095 C 269.731 382.095,268.728 381.242,269.133 380.588 C 269.479 380.027,270.169 380.094,271.153 380.784 M356.350 380.422 C 356.957 380.655,357.214 382.095,356.648 382.095 C 356.173 382.095,355.429 381.235,355.429 380.686 C 355.429 380.123,355.511 380.100,356.350 380.422 M251.048 381.524 C 251.048 382.048,250.876 382.476,250.667 382.476 C 250.457 382.476,250.286 382.048,250.286 381.524 C 250.286 381.000,250.457 380.571,250.667 380.571 C 250.876 380.571,251.048 381.000,251.048 381.524 M367.619 381.524 C 367.619 382.048,367.448 382.476,367.238 382.476 C 367.029 382.476,366.857 382.048,366.857 381.524 C 366.857 381.000,367.029 380.571,367.238 380.571 C 367.448 380.571,367.619 381.000,367.619 381.524 M163.592 386.884 C 165.633 388.926,162.552 391.432,159.460 390.245 C 158.713 389.959,158.607 386.831,159.333 386.538 C 160.421 386.099,163.018 386.310,163.592 386.884 M196.354 386.884 C 198.395 388.926,195.314 391.432,192.222 390.245 C 191.475 389.959,191.369 386.831,192.095 386.538 C 193.183 386.099,195.780 386.310,196.354 386.884 " stroke="none" fill="#fcfafa" fill-rule="evenodd"></path></g></svg>